<?xml version="1.0" encoding="UTF-8"?>
<svg width="512pt" height="512pt" version="1.1" viewBox="0 0 512 512" xmlns="http://www.w3.org/2000/svg">
 <g fill="#1b1a1a">
  <path d="m281.03 376.61 60.301-143.36c5.1211-12.516-0.57031-26.738-13.086-31.859l-117.76-49.492c-12.516-5.1211-26.738 0.57031-31.859 13.086l-60.297 143.36c-2.2773 6.2578-2.8438 12.516 0 18.773 2.2773 6.2578 7.3945 10.809 13.086 13.086l117.76 49.492c2.8438 1.1367 6.2578 1.707 9.6719 1.707 2.8438 0 6.2578-0.57031 9.1016-1.707 5.6875-2.2734 10.805-6.8242 13.082-13.082zm-15.93-6.2578c-0.57031 1.707-2.2773 3.4141-3.9805 3.9805-1.707 0.57031-3.9805 0.57031-5.6875 0l-117.76-49.492c-1.707-0.57031-3.4141-2.2773-3.9805-3.9805-0.57031-1.707-0.57031-3.9805 0-5.6875l60.301-143.93c1.1367-2.8438 3.9805-4.5508 6.8281-4.5508 1.1367 0 1.707 0 2.8438 0.57031l117.76 49.492c3.9805 1.707 5.6875 5.6875 3.9805 9.6719z"/>
  <path d="m271.93 213.9-79.645 44.375c-3.9805 2.2773-5.6875 7.3945-3.4141 11.379 1.707 2.8438 4.5508 4.5508 7.3945 4.5508 1.1367 0 2.8438-0.57031 3.9805-1.1367l79.645-44.375c3.9805-2.2773 5.6875-7.3945 3.4141-11.379-2.2734-4.5508-7.3945-5.6914-11.375-3.4141z"/>
  <path d="m162.7 298.1 21.051 9.1016c1.1367 0.57031 2.2773 0.57031 3.4141 0.57031 3.4141 0 6.2578-1.707 7.9648-5.1211 1.707-4.5508 0-9.1016-4.5508-11.379l-21.051-9.1016c-4.5508-1.707-9.1016 0-11.379 4.5508-1.707 4.5508 0.56641 9.6719 4.5508 11.379z"/>
  <path d="m202.52 320.85-42.098-17.637c-4.5508-1.707-9.1016 0-11.379 4.5508-1.707 4.5508 0 9.1016 4.5508 11.379l42.098 17.637c1.1367 0.57031 2.2773 0.57031 3.4141 0.57031 3.4141 0 6.2578-1.707 7.9648-5.1211 2.2773-4.5508 0-9.6719-4.5508-11.379z"/>
  <path d="m392.54 212.2c1.1367-7.3945 0-15.359-4.5508-22.188l-58.027-88.746c-10.238-15.93-29.582-23.895-48.355-20.48l-104.11 19.91c-10.238 1.707-18.773 8.5352-22.754 18.203l-86.473 204.8c-6.8281 15.359 0.57031 33.562 16.496 40.391l13.652 5.6875-4.5508 18.773c-3.9805 16.496 5.6875 32.996 22.188 37.547l188.87 48.355c2.2773 0.57031 5.1211 1.1367 7.3945 1.1367 13.652 0 26.168-9.1016 29.582-23.324l55.184-215.04c2.2734-9.0977 0.56641-18.199-4.5508-25.027zm-307.77 118.33 86.473-204.8c1.707-3.9805 5.6875-7.3945 10.238-7.9648l104.11-19.91c11.945-2.2773 23.895 2.8438 30.719 13.086l57.461 88.176c2.2773 3.9805 2.8438 8.5352 1.1367 12.516l-86.473 204.8c-1.1367 3.4141-3.9805 5.6875-7.3945 7.3945-3.4141 1.1367-6.8281 1.1367-10.238 0l-179.2-75.66c-6.8242-2.8438-10.238-10.809-6.8242-17.637zm240.64 117.19c-1.707 7.3945-9.1016 11.945-16.496 9.6719l-188.87-48.355c-7.3945-1.707-11.945-9.1016-9.6719-16.496l3.9805-15.93 149.62 63.148c7.3945 3.4141 18.773 2.2773 23.324 0 7.9648-3.9805 13.652-9.1016 16.496-16.496l68.836-163.27z"/>
  <path d="m312.32 122.31c-2.8438-6.2578-7.3945-11.379-13.652-14.223-13.086-5.6875-27.875 0.57031-33.562 13.652-5.6875 13.086 0.57031 27.875 13.652 33.562 3.4141 1.1367 6.8281 2.2773 9.6719 2.2773 10.238 0 19.344-5.6875 23.895-15.93 2.2695-6.2578 2.2695-13.082-0.003907-19.34zm-23.895 18.773c-5.1211 0-9.1016-3.9805-9.1016-9.1016s3.9805-9.1016 9.1016-9.1016c5.1211 0 9.1016 3.9805 9.1016 9.1016 0 5.1172-3.9805 9.1016-9.1016 9.1016z"/>
  <path d="m232.68 191.71c-10.238-4.5508-21.617 0.57031-26.168 10.809-2.2773 5.1211-2.2773 10.238 0 15.359 2.2773 5.1211 5.6875 8.5352 10.809 10.809 2.2773 1.1367 5.1211 1.707 7.9648 1.707 2.2773 0 5.1211-0.57031 7.3945-1.707 5.1211-2.2773 8.5352-5.6875 10.809-10.809 3.9805-10.238-0.57031-22.184-10.809-26.168zm-7.9648 21.617c-1.707 0-3.4141-1.707-3.4141-3.4141s1.707-3.4141 3.4141-3.4141c1.707 0 3.4141 1.707 3.4141 3.4141s-1.707 3.4141-3.4141 3.4141z"/>
  <path d="m259.98 258.84c-10.238-4.5508-21.617 0.57031-26.168 10.809-3.9805 10.238 0.57031 21.617 10.809 26.168 2.2773 1.1367 5.1211 1.707 7.9648 1.707 2.2773 0 5.1211-0.57031 7.3945-1.707 5.1211-2.2773 8.5352-5.6875 10.809-10.809 3.9844-10.238-0.56641-22.184-10.809-26.168zm-7.9609 21.051c-1.707 0-3.4141-1.707-3.4141-3.4141s1.707-3.4141 3.4141-3.4141 3.4141 1.707 3.4141 3.4141c-0.003906 2.2734-1.7109 3.4141-3.4141 3.4141z"/>
 </g>
</svg>
